<svg width="121" height="109" viewBox="0 0 121 109" fill="none" xmlns="http://www.w3.org/2000/svg">
<path d="M108.75 12.0833H89.5979L78.5417 0H42.2917L31.2354 12.0833H12.0833C8.87863 12.0833 5.80519 13.3564 3.53913 15.6225C1.27306 17.8885 0 20.962 0 24.1667V96.6667C0 99.8714 1.27306 102.945 3.53913 105.211C5.80519 107.477 8.87863 108.75 12.0833 108.75H108.75C111.955 108.75 115.028 107.477 117.294 105.211C119.56 102.945 120.833 99.8714 120.833 96.6667V24.1667C120.833 20.962 119.56 17.8885 117.294 15.6225C115.028 13.3564 111.955 12.0833 108.75 12.0833ZM108.75 96.6667H12.0833V24.1667H36.5521L47.6083 12.0833H73.225L84.2813 24.1667H108.75V96.6667ZM60.4167 30.2083C52.4049 30.2083 44.7213 33.391 39.0562 39.0561C33.391 44.7213 30.2083 52.4049 30.2083 60.4167C30.2083 68.4284 33.391 76.112 39.0562 81.7772C44.7213 87.4423 52.4049 90.625 60.4167 90.625C68.4284 90.625 76.112 87.4423 81.7772 81.7772C87.4424 76.112 90.625 68.4284 90.625 60.4167C90.625 52.4049 87.4424 44.7213 81.7772 39.0561C76.112 33.391 68.4284 30.2083 60.4167 30.2083ZM60.4167 78.5417C55.6096 78.5417 50.9995 76.6321 47.6004 73.233C44.2013 69.8339 42.2917 65.2237 42.2917 60.4167C42.2917 55.6096 44.2013 50.9994 47.6004 47.6004C50.9995 44.2013 55.6096 42.2917 60.4167 42.2917C65.2237 42.2917 69.8339 44.2013 73.233 47.6004C76.6321 50.9994 78.5417 55.6096 78.5417 60.4167C78.5417 65.2237 76.6321 69.8339 73.233 73.233C69.8339 76.6321 65.2237 78.5417 60.4167 78.5417Z" fill="#D4D4D4"/>
</svg>
