<svg width="42" height="42" viewBox="0 0 42 42" fill="none" xmlns="http://www.w3.org/2000/svg">
<path d="M34.8022 21.9293L37.1752 24.0424C37.6134 24.4081 37.9062 24.9186 38.0006 25.4815C38.095 26.0444 37.9847 26.6225 37.6897 27.1111L34.8285 31.9988C34.6065 32.373 34.2895 32.6818 33.9097 32.8939C33.5255 33.1065 33.0941 33.2194 32.655 33.2221C32.3826 33.2237 32.1116 33.183 31.8517 33.1013L28.8146 32.0986C28.2826 32.4398 27.7296 32.7452 27.1556 33.0147L26.5177 36.0938C26.3997 36.6602 26.0843 37.1663 25.6279 37.5218C25.1656 37.8837 24.5925 38.0747 24.0056 38.0626H18.081C17.4941 38.0747 16.921 37.8837 16.4587 37.5218C16.0032 37.1659 15.6888 36.6598 15.5715 36.0938L14.931 33.0147C14.3645 32.7416 13.8149 32.4348 13.2851 32.0959L10.2375 33.1013C9.97762 33.183 9.70663 33.2237 9.43424 33.2221C8.99602 33.2189 8.56555 33.1061 8.18211 32.8939C7.80264 32.6825 7.48571 32.3746 7.26336 32.0014L4.29974 27.1111C3.99164 26.618 3.87391 26.0296 3.96863 25.456C4.06334 24.8824 4.364 24.363 4.81424 23.9952L7.18461 21.0001V20.0708L4.81161 17.9577C4.3734 17.592 4.0806 17.0815 3.98623 16.5186C3.89185 15.9557 4.00214 15.3777 4.29711 14.8891L7.26074 10.0013C7.48272 9.62716 7.79968 9.31835 8.17949 9.10618C8.56293 8.894 8.99339 8.7812 9.43161 8.77806C9.70155 8.76103 9.9725 8.78582 10.2349 8.85156L13.2221 9.90156C13.7559 9.56031 14.3089 9.25493 14.8811 8.98543L15.5216 5.90631C15.639 5.34027 15.9534 4.83425 16.4089 4.47831C16.8711 4.11644 17.4442 3.92541 18.0311 3.93756H23.9059C24.4928 3.92541 25.0659 4.11644 25.5281 4.47831C25.9875 4.83793 26.3025 5.34456 26.4154 5.90631L27.0559 8.98543C27.6246 9.25668 28.1732 9.56293 28.7017 9.90418L31.752 8.90143C32.0905 8.79131 32.4482 8.75264 32.8025 8.78788C33.1567 8.82313 33.4998 8.93151 33.81 9.10618C34.1906 9.32143 34.5056 9.63118 34.7287 9.99868L37.6897 14.8891C38.002 15.3779 38.1257 15.9636 38.0378 16.537C37.9499 17.1103 37.6564 17.6321 37.212 18.0049L34.8022 20.0577V21.9293Z" stroke="black"/>
<path d="M27.5625 21C27.5625 22.7405 26.8711 24.4097 25.6404 25.6404C24.4097 26.8711 22.7405 27.5625 21 27.5625C19.2595 27.5625 17.5903 26.8711 16.3596 25.6404C15.1289 24.4097 14.4375 22.7405 14.4375 21C14.4375 19.2595 15.1289 17.5903 16.3596 16.3596C17.5903 15.1289 19.2595 14.4375 21 14.4375C22.7405 14.4375 24.4097 15.1289 25.6404 16.3596C26.8711 17.5903 27.5625 19.2595 27.5625 21Z" stroke="black"/>
</svg>
